<?xml version="1.0" encoding="UTF-8"?>
<svg id="Layer_1" data-name="Layer 1" xmlns="http://www.w3.org/2000/svg" xmlns:xlink="http://www.w3.org/1999/xlink" viewBox="0 0 1675.78 934.73">
  <defs>
    <style>
      .cls-1 {
        fill: #a9a99d;
      }

      .cls-1, .cls-2, .cls-3, .cls-4, .cls-5, .cls-6, .cls-7, .cls-8, .cls-9, .cls-10, .cls-11, .cls-12, .cls-13, .cls-14, .cls-15, .cls-16, .cls-17, .cls-18, .cls-19, .cls-20, .cls-21, .cls-22, .cls-23, .cls-24, .cls-25, .cls-26, .cls-27, .cls-28, .cls-29, .cls-30, .cls-31, .cls-32, .cls-33, .cls-34, .cls-35, .cls-36, .cls-37, .cls-38, .cls-39, .cls-40, .cls-41, .cls-42, .cls-43, .cls-44, .cls-45, .cls-46, .cls-47, .cls-48, .cls-49, .cls-50, .cls-51, .cls-52, .cls-53, .cls-54, .cls-55, .cls-56, .cls-57, .cls-58, .cls-59, .cls-60, .cls-61, .cls-62, .cls-63, .cls-64, .cls-65, .cls-66, .cls-67, .cls-68, .cls-69, .cls-70, .cls-71, .cls-72, .cls-73, .cls-74, .cls-75, .cls-76, .cls-77, .cls-78, .cls-79, .cls-80, .cls-81, .cls-82, .cls-83, .cls-84, .cls-85, .cls-86, .cls-87, .cls-88, .cls-89, .cls-90, .cls-91, .cls-92, .cls-93, .cls-94, .cls-95, .cls-96, .cls-97, .cls-98, .cls-99, .cls-100, .cls-101, .cls-102, .cls-103, .cls-104, .cls-105, .cls-106, .cls-107, .cls-108, .cls-109, .cls-110, .cls-111, .cls-112, .cls-113, .cls-114, .cls-115 {
        stroke-width: 0px;
      }

      .cls-2 {
        fill: url(#linear-gradient-38);
      }

      .cls-3 {
        fill: url(#linear-gradient-12);
      }

      .cls-4 {
        fill: #4b5650;
      }

      .cls-5 {
        fill: url(#linear-gradient-17);
      }

      .cls-6 {
        fill: url(#linear-gradient-88);
      }

      .cls-7 {
        fill: url(#linear-gradient-19);
      }

      .cls-8 {
        fill: url(#linear-gradient-33);
      }

      .cls-9 {
        fill: url(#linear-gradient);
      }

      .cls-10 {
        fill: url(#linear-gradient-62);
      }

      .cls-11 {
        fill: url(#linear-gradient-67);
      }

      .cls-12 {
        fill: url(#linear-gradient-57);
      }

      .cls-13 {
        fill: #2f523a;
      }

      .cls-14 {
        fill: url(#linear-gradient-21);
      }

      .cls-15 {
        fill: url(#linear-gradient-6);
      }

      .cls-16 {
        fill: url(#linear-gradient-76);
      }

      .cls-17 {
        fill: #4e554e;
      }

      .cls-18 {
        fill: #9c9b89;
      }

      .cls-19 {
        fill: #cdd3d1;
      }

      .cls-20 {
        fill: url(#linear-gradient-42);
      }

      .cls-22 {
        fill: #9e9a8e;
      }

      .cls-23 {
        fill: url(#linear-gradient-15);
      }

      .cls-24 {
        fill: #9d9b8c;
      }

      .cls-25 {
        fill: url(#linear-gradient-11);
      }

      .cls-26 {
        fill: url(#linear-gradient-81);
      }

      .cls-27 {
        fill: #8b8b7f;
      }

      .cls-28 {
        fill: url(#linear-gradient-73);
      }

      .cls-29 {
        fill: url(#linear-gradient-5);
      }

      .cls-30 {
        fill: url(#linear-gradient-31);
      }

      .cls-31 {
        fill: url(#linear-gradient-71);
      }

      .cls-32 {
        fill: url(#linear-gradient-58);
      }

      .cls-33 {
        fill: url(#linear-gradient-63);
      }

      .cls-34 {
        fill: #8c8c80;
      }

      .cls-35 {
        fill: url(#linear-gradient-34);
      }

      .cls-36 {
        fill: #33553d;
      }

      .cls-37 {
        fill: #4f544e;
      }

      .cls-38 {
        fill: url(#linear-gradient-41);
      }

      .cls-39 {
        fill: url(#linear-gradient-89);
      }

      .cls-40 {
        fill: url(#linear-gradient-40);
      }

      .cls-41 {
        fill: url(#linear-gradient-66);
      }

      .cls-42 {
        fill: url(#linear-gradient-13);
      }

      .cls-43 {
        fill: url(#linear-gradient-23);
      }

      .cls-44 {
        fill: url(#linear-gradient-25);
      }

      .cls-45 {
        fill: url(#linear-gradient-43);
      }

      .cls-46 {
        fill: url(#linear-gradient-16);
      }

      .cls-47 {
        fill: url(#linear-gradient-22);
      }

      .cls-48 {
        fill: url(#linear-gradient-54);
      }

      .cls-49 {
        fill: url(#linear-gradient-55);
      }

      .cls-50 {
        fill: #fff;
      }

      .cls-51 {
        fill: url(#linear-gradient-35);
      }

      .cls-52 {
        fill: url(#linear-gradient-50);
      }

      .cls-53 {
        fill: url(#linear-gradient-32);
      }

      .cls-54 {
        fill: url(#linear-gradient-60);
      }

      .cls-55 {
        fill: url(#linear-gradient-59);
      }

      .cls-56 {
        fill: url(#linear-gradient-20);
      }

      .cls-57 {
        fill: url(#linear-gradient-14);
      }

      .cls-58 {
        fill: url(#linear-gradient-2);
      }

      .cls-59 {
        fill: #c8cecc;
      }

      .cls-60 {
        fill: url(#linear-gradient-52);
      }

      .cls-61 {
        fill: url(#linear-gradient-45);
      }

      .cls-62 {
        fill: #4b4b4b;
      }

      .cls-63 {
        fill: url(#linear-gradient-7);
      }

      .cls-64 {
        fill: url(#linear-gradient-39);
      }

      .cls-65 {
        fill: #8d8d83;
      }

      .cls-66 {
        fill: url(#linear-gradient-3);
      }

      .cls-67 {
        fill: url(#linear-gradient-77);
      }

      .cls-68 {
        fill: url(#linear-gradient-69);
      }

      .cls-69 {
        fill: #68a44a;
      }

      .cls-70 {
        fill: url(#linear-gradient-9);
      }

      .cls-71 {
        fill: url(#linear-gradient-27);
      }

      .cls-72 {
        fill: url(#linear-gradient-82);
      }

      .cls-73 {
        fill: url(#linear-gradient-83);
      }

      .cls-74 {
        fill: #fffdfe;
      }

      .cls-75 {
        fill: url(#linear-gradient-53);
      }

      .cls-76 {
        fill: url(#linear-gradient-90);
      }

      .cls-77 {
        fill: url(#linear-gradient-85);
      }

      .cls-78 {
        fill: url(#linear-gradient-65);
      }

      .cls-79 {
        fill: url(#linear-gradient-36);
      }

      .cls-80 {
        fill: url(#linear-gradient-48);
      }

      .cls-81 {
        fill: url(#linear-gradient-49);
      }

      .cls-82 {
        fill: url(#linear-gradient-8);
      }

      .cls-83 {
        fill: url(#linear-gradient-47);
      }

      .cls-84 {
        fill: url(#linear-gradient-24);
      }

      .cls-85 {
        fill: url(#linear-gradient-26);
      }

      .cls-86 {
        fill: url(#linear-gradient-61);
      }

      .cls-87 {
        fill: url(#linear-gradient-18);
      }

      .cls-88 {
        fill: #d5d7d6;
      }

      .cls-89 {
        fill: url(#linear-gradient-51);
      }

      .cls-90 {
        fill: url(#linear-gradient-30);
      }

      .cls-91 {
        fill: url(#linear-gradient-44);
      }

      .cls-92 {
        fill: url(#linear-gradient-84);
      }

      .cls-93 {
        fill: url(#linear-gradient-68);
      }

      .cls-94 {
        fill: url(#linear-gradient-72);
      }

      .cls-95 {
        fill: url(#linear-gradient-29);
      }

      .cls-96 {
        fill: #9b998a;
      }

      .cls-97 {
        fill: url(#linear-gradient-46);
      }

      .cls-98 {
        fill: #909183;
      }

      .cls-99 {
        fill: url(#linear-gradient-64);
      }

      .cls-100 {
        fill: url(#linear-gradient-28);
      }

      .cls-101 {
        fill: url(#linear-gradient-56);
      }

      .cls-102 {
        fill: url(#linear-gradient-10);
      }

      .cls-103 {
        fill: url(#linear-gradient-87);
      }

      .cls-104 {
        fill: url(#linear-gradient-70);
      }

      .cls-105 {
        fill: url(#linear-gradient-78);
      }

      .cls-106 {
        fill: url(#linear-gradient-86);
      }

      .cls-107 {
        fill: #a4a498;
      }

      .cls-108 {
        fill: url(#linear-gradient-74);
      }

      .cls-109 {
        fill: #616b63;
      }

      .cls-110 {
        fill: url(#linear-gradient-4);
      }

      .cls-111 {
        fill: url(#linear-gradient-37);
      }

      .cls-112 {
        fill: url(#linear-gradient-80);
      }

      .cls-113 {
        fill: url(#linear-gradient-79);
      }

      .cls-114 {
        fill: #89897d;
      }

      .cls-115 {
        fill: url(#linear-gradient-75);
      }
    </style>
    <linearGradient id="linear-gradient" x1="374.07" y1="254.18" x2="400.93" y2="227.32" gradientUnits="userSpaceOnUse">
      <stop offset="0" stop-color="#787878"/>
      <stop offset=".11" stop-color="#787878"/>
      <stop offset=".9" stop-color="#a2a2a2"/>
      <stop offset="1" stop-color="#a2a2a2"/>
    </linearGradient>
    <linearGradient id="linear-gradient-2" x1="392.97" y1="237.39" x2="404.65" y2="225.71" gradientUnits="userSpaceOnUse">
      <stop offset="0" stop-color="#bbbdbc"/>
      <stop offset=".13" stop-color="#bdbfbe"/>
      <stop offset=".91" stop-color="#e7e9e8"/>
      <stop offset="1" stop-color="#e7e9e8"/>
    </linearGradient>
    <linearGradient id="linear-gradient-3" x1="479.95" y1="355.82" x2="506.81" y2="328.97" xlink:href="#linear-gradient"/>
    <linearGradient id="linear-gradient-4" x1="498.85" y1="339.04" x2="510.54" y2="327.36" xlink:href="#linear-gradient-2"/>
    <linearGradient id="linear-gradient-5" x1="458.78" y1="434.88" x2="485.63" y2="408.02" xlink:href="#linear-gradient"/>
    <linearGradient id="linear-gradient-6" x1="477.68" y1="418.1" x2="489.36" y2="406.42" xlink:href="#linear-gradient-2"/>
    <linearGradient id="linear-gradient-7" x1="434.78" y1="502.65" x2="461.63" y2="475.79" xlink:href="#linear-gradient"/>
    <linearGradient id="linear-gradient-8" x1="453.68" y1="485.87" x2="465.36" y2="474.18" xlink:href="#linear-gradient-2"/>
    <linearGradient id="linear-gradient-9" x1="367.01" y1="522.41" x2="393.87" y2="495.56" xlink:href="#linear-gradient"/>
    <linearGradient id="linear-gradient-10" x1="385.91" y1="505.63" x2="397.6" y2="493.95" xlink:href="#linear-gradient-2"/>
    <linearGradient id="linear-gradient-11" x1="238.54" y1="398.18" x2="265.4" y2="371.32" xlink:href="#linear-gradient"/>
    <linearGradient id="linear-gradient-12" x1="257.44" y1="381.39" x2="269.12" y2="369.71" xlink:href="#linear-gradient-2"/>
    <linearGradient id="linear-gradient-13" x1="232.89" y1="504.06" x2="259.75" y2="477.2" xlink:href="#linear-gradient"/>
    <linearGradient id="linear-gradient-14" x1="251.79" y1="487.28" x2="263.48" y2="475.59" xlink:href="#linear-gradient-2"/>
    <linearGradient id="linear-gradient-15" x1="115.71" y1="530.89" x2="142.57" y2="504.03" xlink:href="#linear-gradient"/>
    <linearGradient id="linear-gradient-16" x1="134.61" y1="514.1" x2="146.3" y2="502.42" xlink:href="#linear-gradient-2"/>
    <linearGradient id="linear-gradient-17" x1="136.89" y1="597.24" x2="163.75" y2="570.38" xlink:href="#linear-gradient"/>
    <linearGradient id="linear-gradient-18" x1="155.79" y1="580.46" x2="167.48" y2="568.77" xlink:href="#linear-gradient-2"/>
    <linearGradient id="linear-gradient-19" x1="9.83" y1="642.01" x2="36.69" y2="615.15" xlink:href="#linear-gradient"/>
    <linearGradient id="linear-gradient-20" x1="28.73" y1="625.23" x2="40.42" y2="613.54" xlink:href="#linear-gradient-2"/>
    <linearGradient id="linear-gradient-21" x1="287.95" y1="642.01" x2="314.81" y2="615.15" xlink:href="#linear-gradient"/>
    <linearGradient id="linear-gradient-22" x1="306.85" y1="625.23" x2="318.54" y2="613.54" xlink:href="#linear-gradient-2"/>
    <linearGradient id="linear-gradient-23" x1="667.72" y1="642.01" x2="694.58" y2="615.15" xlink:href="#linear-gradient"/>
    <linearGradient id="linear-gradient-24" x1="686.62" y1="625.23" x2="698.3" y2="613.54" xlink:href="#linear-gradient-2"/>
    <linearGradient id="linear-gradient-25" x1="996.66" y1="642.01" x2="1023.52" y2="615.15" xlink:href="#linear-gradient"/>
    <linearGradient id="linear-gradient-26" x1="1015.56" y1="625.23" x2="1027.25" y2="613.54" xlink:href="#linear-gradient-2"/>
    <linearGradient id="linear-gradient-27" x1="1280.43" y1="642.01" x2="1307.29" y2="615.15" xlink:href="#linear-gradient"/>
    <linearGradient id="linear-gradient-28" x1="1299.33" y1="625.23" x2="1311.02" y2="613.54" xlink:href="#linear-gradient-2"/>
    <linearGradient id="linear-gradient-29" x1="1435.73" y1="642.01" x2="1462.58" y2="615.15" xlink:href="#linear-gradient"/>
    <linearGradient id="linear-gradient-30" x1="1454.63" y1="625.23" x2="1466.31" y2="613.54" xlink:href="#linear-gradient-2"/>
    <linearGradient id="linear-gradient-31" x1="1633.37" y1="642.01" x2="1660.23" y2="615.15" xlink:href="#linear-gradient"/>
    <linearGradient id="linear-gradient-32" x1="1652.28" y1="625.23" x2="1663.96" y2="613.54" xlink:href="#linear-gradient-2"/>
    <linearGradient id="linear-gradient-33" x1="1520.43" y1="525.24" x2="1547.29" y2="498.38" xlink:href="#linear-gradient"/>
    <linearGradient id="linear-gradient-34" x1="1539.33" y1="508.45" x2="1551.02" y2="496.77" xlink:href="#linear-gradient-2"/>
    <linearGradient id="linear-gradient-35" x1="1438.55" y1="532.3" x2="1465.41" y2="505.44" xlink:href="#linear-gradient"/>
    <linearGradient id="linear-gradient-36" x1="1457.45" y1="515.51" x2="1469.14" y2="503.83" xlink:href="#linear-gradient-2"/>
    <linearGradient id="linear-gradient-37" x1="1400.43" y1="585.94" x2="1427.29" y2="559.09" xlink:href="#linear-gradient"/>
    <linearGradient id="linear-gradient-38" x1="1419.33" y1="569.16" x2="1431.02" y2="557.48" xlink:href="#linear-gradient-2"/>
    <linearGradient id="linear-gradient-39" x1="1490.78" y1="600.06" x2="1517.64" y2="573.2" xlink:href="#linear-gradient"/>
    <linearGradient id="linear-gradient-40" x1="1509.69" y1="583.28" x2="1521.37" y2="571.59" xlink:href="#linear-gradient-2"/>
    <linearGradient id="linear-gradient-41" x1="1427.25" y1="430.65" x2="1454.11" y2="403.79" xlink:href="#linear-gradient"/>
    <linearGradient id="linear-gradient-42" x1="1446.16" y1="413.87" x2="1457.84" y2="402.18" xlink:href="#linear-gradient-2"/>
    <linearGradient id="linear-gradient-43" x1="1308.67" y1="502.65" x2="1335.52" y2="475.79" xlink:href="#linear-gradient"/>
    <linearGradient id="linear-gradient-44" x1="1327.57" y1="485.87" x2="1339.25" y2="474.18" xlink:href="#linear-gradient-2"/>
    <linearGradient id="linear-gradient-45" x1="1232.43" y1="240.06" x2="1259.29" y2="213.2" xlink:href="#linear-gradient"/>
    <linearGradient id="linear-gradient-46" x1="1251.33" y1="223.28" x2="1263.02" y2="211.59" xlink:href="#linear-gradient-2"/>
    <linearGradient id="linear-gradient-47" x1="1126.55" y1="334.65" x2="1153.41" y2="307.79" xlink:href="#linear-gradient"/>
    <linearGradient id="linear-gradient-48" x1="1145.45" y1="317.86" x2="1157.13" y2="306.18" xlink:href="#linear-gradient-2"/>
    <linearGradient id="linear-gradient-49" x1="1197.14" y1="401" x2="1223.99" y2="374.14" xlink:href="#linear-gradient"/>
    <linearGradient id="linear-gradient-50" x1="1216.04" y1="384.22" x2="1227.72" y2="372.53" xlink:href="#linear-gradient-2"/>
    <linearGradient id="linear-gradient-51" x1="1174.55" y1="506.88" x2="1201.41" y2="480.03" xlink:href="#linear-gradient"/>
    <linearGradient id="linear-gradient-52" x1="1193.45" y1="490.1" x2="1205.13" y2="478.42" xlink:href="#linear-gradient-2"/>
    <linearGradient id="linear-gradient-53" x1="1095.49" y1="409.47" x2="1122.35" y2="382.61" xlink:href="#linear-gradient"/>
    <linearGradient id="linear-gradient-54" x1="1114.39" y1="392.69" x2="1126.07" y2="381" xlink:href="#linear-gradient-2"/>
    <linearGradient id="linear-gradient-55" x1="1030.55" y1="317.71" x2="1057.4" y2="290.85" xlink:href="#linear-gradient"/>
    <linearGradient id="linear-gradient-56" x1="1049.45" y1="300.92" x2="1061.13" y2="289.24" xlink:href="#linear-gradient-2"/>
    <linearGradient id="linear-gradient-57" x1="924.66" y1="182.18" x2="951.52" y2="155.32" xlink:href="#linear-gradient"/>
    <linearGradient id="linear-gradient-58" x1="943.56" y1="165.39" x2="955.25" y2="153.71" xlink:href="#linear-gradient-2"/>
    <linearGradient id="linear-gradient-59" x1="803.25" y1="42.41" x2="830.11" y2="15.55" xlink:href="#linear-gradient"/>
    <linearGradient id="linear-gradient-60" x1="822.15" y1="25.63" x2="833.84" y2="13.94" xlink:href="#linear-gradient-2"/>
    <linearGradient id="linear-gradient-61" x1="854.07" y1="266.88" x2="880.93" y2="240.02" xlink:href="#linear-gradient"/>
    <linearGradient id="linear-gradient-62" x1="872.97" y1="250.1" x2="884.66" y2="238.41" xlink:href="#linear-gradient-2"/>
    <linearGradient id="linear-gradient-63" x1="734.07" y1="241.47" x2="760.93" y2="214.61" xlink:href="#linear-gradient"/>
    <linearGradient id="linear-gradient-64" x1="752.97" y1="224.69" x2="764.66" y2="213" xlink:href="#linear-gradient-2"/>
    <linearGradient id="linear-gradient-65" x1="636.66" y1="233" x2="663.52" y2="206.14" xlink:href="#linear-gradient"/>
    <linearGradient id="linear-gradient-66" x1="655.56" y1="216.22" x2="667.25" y2="204.53" xlink:href="#linear-gradient-2"/>
    <linearGradient id="linear-gradient-67" x1="559.01" y1="329" x2="585.87" y2="302.14" xlink:href="#linear-gradient"/>
    <linearGradient id="linear-gradient-68" x1="577.91" y1="312.22" x2="589.6" y2="300.53" xlink:href="#linear-gradient-2"/>
    <linearGradient id="linear-gradient-69" x1="566.07" y1="443.35" x2="592.93" y2="416.5" xlink:href="#linear-gradient"/>
    <linearGradient id="linear-gradient-70" x1="584.97" y1="426.57" x2="596.66" y2="414.89" xlink:href="#linear-gradient-2"/>
    <linearGradient id="linear-gradient-71" x1="697.37" y1="326.18" x2="724.22" y2="299.32" xlink:href="#linear-gradient"/>
    <linearGradient id="linear-gradient-72" x1="716.27" y1="309.39" x2="727.95" y2="297.71" xlink:href="#linear-gradient-2"/>
    <linearGradient id="linear-gradient-73" x1="762.31" y1="430.65" x2="789.17" y2="403.79" xlink:href="#linear-gradient"/>
    <linearGradient id="linear-gradient-74" x1="781.21" y1="413.87" x2="792.89" y2="402.18" xlink:href="#linear-gradient-2"/>
    <linearGradient id="linear-gradient-75" x1="655.01" y1="497" x2="681.87" y2="470.14" xlink:href="#linear-gradient"/>
    <linearGradient id="linear-gradient-76" x1="673.91" y1="480.22" x2="685.6" y2="468.53" xlink:href="#linear-gradient-2"/>
    <linearGradient id="linear-gradient-77" x1="866.78" y1="537.94" x2="893.64" y2="511.08" xlink:href="#linear-gradient"/>
    <linearGradient id="linear-gradient-78" x1="885.68" y1="521.16" x2="897.37" y2="509.48" xlink:href="#linear-gradient-2"/>
    <linearGradient id="linear-gradient-79" x1="934.54" y1="574.65" x2="961.4" y2="547.79" xlink:href="#linear-gradient"/>
    <linearGradient id="linear-gradient-80" x1="953.45" y1="557.87" x2="965.13" y2="546.18" xlink:href="#linear-gradient-2"/>
    <linearGradient id="linear-gradient-81" x1="1006.55" y1="499.83" x2="1033.4" y2="472.97" xlink:href="#linear-gradient"/>
    <linearGradient id="linear-gradient-82" x1="1025.45" y1="483.04" x2="1037.13" y2="471.36" xlink:href="#linear-gradient-2"/>
    <linearGradient id="linear-gradient-83" x1="1129.37" y1="583.12" x2="1156.23" y2="556.26" xlink:href="#linear-gradient"/>
    <linearGradient id="linear-gradient-84" x1="1148.27" y1="566.34" x2="1159.96" y2="554.65" xlink:href="#linear-gradient-2"/>
    <linearGradient id="linear-gradient-85" x1="560.42" y1="566.18" x2="587.28" y2="539.32" xlink:href="#linear-gradient"/>
    <linearGradient id="linear-gradient-86" x1="579.32" y1="549.4" x2="591.01" y2="537.71" xlink:href="#linear-gradient-2"/>
    <linearGradient id="linear-gradient-87" x1="839.96" y1="402.41" x2="866.81" y2="375.55" xlink:href="#linear-gradient"/>
    <linearGradient id="linear-gradient-88" x1="858.86" y1="385.63" x2="870.54" y2="373.94" xlink:href="#linear-gradient-2"/>
    <linearGradient id="linear-gradient-89" x1="352.89" y1="365.71" x2="379.75" y2="338.85" xlink:href="#linear-gradient"/>
    <linearGradient id="linear-gradient-90" x1="371.79" y1="348.92" x2="383.48" y2="337.24" xlink:href="#linear-gradient-2"/>
  </defs>
  <g>
    <g>
      <path class="cls-50" d="M798.14,212.76l26.89-12.11,30.56,28.41c1.84-1.26,3.86-2.28,6-3.04l-38.79-174.01c-1.07.14-2.16.23-3.27.23-1.78,0-3.52-.18-5.21-.52l-16.57,46.6,4.33,20.16-20.41,29.92,16.47,64.36Z"/>
      <path class="cls-13" d="M555.8,534.32c4.77-6.39,12.35-10.54,20.91-10.54,2.7,0,5.3.41,7.76,1.17l14.42-48.33-9.48-24.43c-2.25.63-4.61,1-7.05,1-9.4,0-17.62-5.01-22.23-12.48l-84.38,37.21c.91,2.66,1.44,5.49,1.44,8.44,0,3.35-.66,6.54-1.81,9.48l80.42,38.48Z"/>
      <path class="cls-65" d="M678.21,606.1l1.32,2.01-.15-2.31c-.4.1-.78.19-1.17.3Z"/>
      <path class="cls-17" d="M661.95,341.31l25.73-28.7c-.1-.89-.14-1.8-.14-2.72,0-14.4,11.71-26.12,26.12-26.12,3.09,0,6.04.57,8.8,1.56l14.14-38c-7.17-4.47-12-12.29-12.31-21.25l-45.55-5.4c-1.93,12.52-12.74,22.14-25.79,22.14-1.22,0-2.42-.11-3.6-.27l-31.12,112.5,43.72-13.74Z"/>
      <path class="cls-17" d="M671.3,506.83c-7.96,0-15.09-3.59-19.88-9.23l-28.72,23.45,52.33,80.19c1.3-.48,2.62-.87,4-1.14l-5.84-93.37c-.62.05-1.24.1-1.89.1Z"/>
      <path class="cls-37" d="M982.94,558.71l4.65-30.23-23.83,7.22c7.86,4.51,13.19,12.96,13.19,22.66,0,.45-.05.88-.07,1.32l6.06-.96Z"/>
      <path class="cls-24" d="M1009.68,305.66l-58.28-56.93-27.64-15.48,14.7,32.57.6.29-.24.5,41.12,91.04-9.88,36.67,42.13,65.38c3.26-1.46,6.85-2.28,10.63-2.28.58,0,1.14.05,1.69.09l15.54-130.89c-9.79-2.64-17.31-10.81-18.97-20.95h-11.41Z"/>
      <path class="cls-98" d="M1003.94,501.52c-4.47-4.68-7.23-11.01-7.23-17.98,0-3.69.78-7.19,2.16-10.38l-122.11-70.93c-3.24,4.11-7.67,7.26-12.79,8.85l16.92,84.57c.72-.05,1.44-.11,2.17-.11,14.4,0,26.12,11.72,26.12,26.12,0,1.24-.12,2.45-.29,3.65l24.65,13.53c4.61-4.09,10.65-6.6,17.29-6.6,1.31,0,2.58.13,3.84.32l34.66-10.51,14.61-20.54Z"/>
      <path class="cls-17" d="M858.48,512.95c1.55-4.38,4.23-8.23,7.7-11.18l-70.41-67.78c-4.6,4.04-10.6,6.5-17.18,6.5-8.3,0-15.71-3.92-20.49-10l-62.92,39.69c1.44,3.22,2.24,6.78,2.24,10.53,0,.8-.04,1.59-.12,2.37l161.18,29.87Z"/>
      <path class="cls-65" d="M646.07,233.23l-1.71,2.05c.34.15.67.31,1.02.44l.7-2.49Z"/>
      <path class="cls-17" d="M739.78,309.89c0,2.36-.34,4.64-.94,6.81l21.03,11.8,11.39-38.09-32.49,12.35c.64,2.27,1.02,4.65,1.02,7.12Z"/>
      <path class="cls-1" d="M889.12,268.72l76.82,119.21,8.02-29.79-39.81-88.15-37.72-18.52c-.22,6.7-2.96,12.76-7.32,17.26Z"/>
      <path class="cls-34" d="M764.91,331.33l70.27,39.42c4.68-6.4,12.18-10.6,20.67-10.72l6.55-84.57c-6.91-2.22-12.56-7.25-15.62-13.73l-68.86,26.16-13,43.44Z"/>
      <path class="cls-17" d="M678.98,215.02l45.71,5.42c2.24-12.15,12.89-21.38,25.67-21.38,1.77,0,3.5.18,5.19.52l17.29-45.33-95.72,52.57c1.04,2.56,1.68,5.31,1.86,8.2Z"/>
      <path class="cls-17" d="M760.92,201.32c9.15,4.06,15.56,13.22,15.56,23.86,0,14.4-11.72,26.12-26.12,26.12-3.04,0-5.95-.55-8.66-1.5l-14.15,38.02c3.8,2.4,6.95,5.73,9.1,9.71l36.64-13.93,20.02-66.95-15.34-59.98-17.04,44.65Z"/>
      <path class="cls-17" d="M595.27,404.39c7.87,4.51,13.21,12.97,13.21,22.68,0,2.42-.35,4.75-.97,6.97l44.88,28.72c4.76-5.01,11.47-8.17,18.92-8.17.97,0,1.92.06,2.86.17l30.71-120.31c-7.15-2.56-12.85-8.13-15.57-15.19l-24.19,26.98-48.99,15.39-20.86,42.76Z"/>
      <path class="cls-114" d="M798.58,218.75l-18.64,62.32,64.98-24.68c-.43-1.86-.67-3.8-.67-5.8,0-6.88,2.7-13.12,7.06-17.79l-27.37-25.44-25.35,11.4Z"/>
      <path class="cls-27" d="M1001.69,468.26c1.57-2.17,3.48-4.09,5.64-5.7l-122.58-190.19c-4.12,2.73-9.07,4.34-14.39,4.34-.8,0-1.61-.04-2.39-.12l-6.5,83.94c11.9,2.43,20.89,12.98,20.89,25.59,0,4.05-.95,7.87-2.6,11.3l121.94,70.84Z"/>
      <path class="cls-98" d="M856.24,412.24c-10.31,0-19.22-6.02-23.46-14.73l-29.12,9.57c.68,2.31,1.05,4.76,1.05,7.29,0,5.79-1.92,11.12-5.11,15.46l71.37,68.7c1.39-.73,2.85-1.35,4.37-1.82l-16.92-84.57c-.72.05-1.45.11-2.19.11Z"/>
      <path class="cls-98" d="M830.87,392.2c-.47-1.95-.75-3.97-.75-6.07,0-3.73.8-7.27,2.23-10.5l-69.1-38.75-9.07,30.36,14.34,23.03c3.11-1.31,6.5-2.02,10.07-2.02,9.88,0,18.48,5.51,22.92,13.6l29.36-9.64Z"/>
      <path class="cls-17" d="M758.2,334.04l-21.44-12.02c-1.52,2.89-3.58,5.46-6.03,7.58l19.46,31.24,8.01-26.8Z"/>
      <path class="cls-65" d="M875.32,502.72l1.51,1.47-.37-1.89c-.39.13-.76.27-1.14.42Z"/>
      <path class="cls-4" d="M1249.55,455.89l-29.77-11.35v-34.53c-2.05.51-4.17.81-6.35.81-.29,0-.57-.03-.85-.04l-11.33,55.87c9.23,4.03,15.71,13.24,15.71,23.94,0,7.97-3.6,15.11-9.25,19.89l73.77,94.07c3.37-2.44,7.34-4.08,11.66-4.68v-38.12l-39.4-43.17-4.18-62.7Z"/>
      <path class="cls-4" d="M1242.67,343.9l-9.44-34.89-10.42,51.36c3.64,1.41,6.89,3.61,9.53,6.4l14.88-18.76-4.55-4.1Z"/>
      <path class="cls-65" d="M1325.3,360.92l29.91,77.07,75.44,68.18c3.3-8.08,10.53-14.13,19.31-15.8l-5.76-49.91c-.23,0-.44.03-.65.03-14.4,0-26.12-11.72-26.12-26.12,0-2.22.3-4.35.82-6.41l-92.95-47.04Z"/>
      <path class="cls-65" d="M1372.56,461.27l-21.93-19.81-.11.04-.09-.22-99.01-89.48-15.57,19.62c2.32,3.9,3.69,8.44,3.69,13.3s-1.45,9.68-3.91,13.67l73.24,67.45c4.44-3.48,10.02-5.58,16.08-5.58,8.54,0,16.11,4.14,20.89,10.5l26.72-9.48Z"/>
      <path class="cls-65" d="M1511.47,515.49l-30.59,2.04c-.42,7.12-3.69,13.49-8.69,17.96l20.98,26.23c4.04-2.55,8.8-4.05,13.91-4.05,2.2,0,4.32.31,6.35.81l11.43-26.28c-6.57-3.36-11.51-9.42-13.39-16.7Z"/>
      <path class="cls-4" d="M1213.43,358.59c1.33,0,2.64.14,3.92.33l11.74-57.88-60.42,20.93c-.56,4-1.99,7.7-4.15,10.91l33.46,30.82c4.34-3.19,9.66-5.11,15.45-5.11Z"/>
      <path class="cls-19" d="M1230.4,294.61l9.4-46.32c-3.64-1.34-6.92-3.43-9.61-6.14l-65.04,62.69c2,3.3,3.31,7.06,3.69,11.1l61.57-21.33Z"/>
      <path class="cls-50" d="M1248.72,249.88c-1.17,0-2.3-.1-3.43-.25l-9.55,47.02,11.96,44.16,98.19,88.74-31.16-80.34,105.51,53.42c.82-1.62,1.8-3.15,2.92-4.55l-154.29-157.71c-4.8,5.81-12.05,9.51-20.15,9.51Z"/>
      <path class="cls-65" d="M1383.4,504.44l13.93-20.78-20.01-18.08-28.55,10.12c1.47,3.26,2.3,6.87,2.3,10.66,0,3.17-.59,6.19-1.63,9l33.96,9.08Z"/>
      <path class="cls-4" d="M1111.77,367.07c14.41,0,26.12,11.72,26.12,26.12,0,7.21-2.94,13.76-7.68,18.48l45.33,57.81c4.31-3.13,9.59-4.99,15.3-4.99,1.71,0,3.37.17,4.99.49l11.15-54.98c-11.29-2.88-19.67-13.1-19.67-25.28,0-6.58,2.46-12.58,6.49-17.18l-32.92-30.33c-4.69,4.5-11.05,7.28-18.04,7.28-5.3,0-10.23-1.6-14.34-4.32l-30.96,29.84.71.89c3.95-2.41,8.57-3.82,13.53-3.82Z"/>
      <path class="cls-65" d="M1480.96,583.77c0-.35.04-.7.05-1.05l-39.07-6.4c-1.34,5.08-4.17,9.55-7.99,12.91l9.31,11.91c2.74-.99,5.69-1.54,8.75-1.54,6.93,0,13.23,2.73,17.91,7.16l14.75-9.63c-2.35-3.91-3.72-8.47-3.72-13.36Z"/>
      <path class="cls-65" d="M1467.6,538.78c-3.78,2.12-8.12,3.35-12.76,3.35-5.99,0-11.5-2.05-15.91-5.45l-8.99,10.49c7.7,4.55,12.9,12.92,12.9,22.49,0,.38-.04.73-.05,1.09l39.06,6.39c1.21-4.59,3.61-8.69,6.9-11.92l-21.15-26.43Z"/>
      <path class="cls-65" d="M1416.72,543.54c2.73,0,5.37.42,7.85,1.21l10.26-11.98c-3.81-4.54-6.12-10.39-6.12-16.77,0-1.26.12-2.51.3-3.72l-27.46-24.81-15.72,23.46-38.97-10.43c-.04.06-.07.14-.13.21l53.17,48.97c4.55-3.84,10.41-6.15,16.81-6.15Z"/>
      <path class="cls-22" d="M1046.84,327.53c-.41,0-.79-.04-1.19-.05l-15.54,130.99c10.3,2.99,17.97,12.16,18.76,23.22l116.1,5.52c.7-5.31,2.99-10.11,6.39-13.93l-45.55-58.09c-4.06,2.59-8.86,4.11-14.02,4.11-14.4,0-26.11-11.72-26.11-26.12,0-7.41,3.12-14.1,8.09-18.86l-37.96-48.41c-2.81,1.03-5.81,1.62-8.96,1.62Z"/>
      <path class="cls-65" d="M1449.8,439.69l5.8,50.24c12.65.36,23.05,9.75,24.99,21.95l30.06-2c-.01-.31-.05-.62-.05-.93,0-5.99,2.06-11.51,5.45-15.91l-56.68-57.95c-2.81,2.14-6.04,3.73-9.57,4.6Z"/>
      <path class="cls-36" d="M127.06,580.95c0-10.24,5.95-19.11,14.55-23.39l-3.41-17.62c-1.99.48-4.06.77-6.2.77-6.42,0-12.3-2.35-16.85-6.2l-68.96,74.52c1.44,1.72,2.64,3.64,3.6,5.71l77.72-29.11c-.28-1.52-.45-3.09-.45-4.68Z"/>
      <path class="cls-13" d="M550.59,549.9c0-3.81.85-7.43,2.31-10.7l-80.12-38.34c-4.69,7.01-12.67,11.62-21.72,11.62-11.14,0-20.64-7.02-24.39-16.85l-99.08,118.5c.49.99.92,2,1.3,3.05l221.82-64.96c-.06-.77-.12-1.53-.12-2.31Z"/>
      <path class="cls-36" d="M177.62,590.07c-3.72,9.91-13.26,17-24.45,17s-20.12-6.61-24.07-16.01l-77.5,29.02c.41,1.81.63,3.7.63,5.64,0,1.09-.1,2.16-.23,3.22h226.33c-.13-1.06-.21-2.13-.21-3.22,0-1.71.17-3.39.49-5.01l-100.99-30.64Z"/>
      <path class="cls-36" d="M304.24,599.61c8.1,0,15.36,3.72,20.15,9.53l31.06-37.14-5.39-26.35,5.42-25.24-176.85,54.77c.42,1.86.66,3.79.66,5.79,0,1.23-.12,2.44-.29,3.64l101.29,30.73c4.03-9.23,13.24-15.72,23.94-15.72Z"/>
      <path class="cls-13" d="M669.94,603.76l-51.65-79.13-17.79,14.53c1.49,3.28,2.34,6.9,2.34,10.73,0,4.62-1.22,8.96-3.34,12.73l63.6,47.52c1.87-2.52,4.19-4.68,6.85-6.39Z"/>
      <path class="cls-13" d="M576.71,576c-11.66,0-21.54-7.67-24.9-18.23l-221.64,64.92c.11,1,.18,2,.18,3.03,0,1.09-.09,2.16-.21,3.22h327.97c-.13-1.06-.22-2.13-.22-3.22,0-3.8.85-7.41,2.31-10.68l-64-47.82c-4.79,5.38-11.74,8.78-19.49,8.78Z"/>
      <path class="cls-59" d="M325.66,346.57l17.52.71c1.09-13.4,12.33-23.98,26-23.98.26,0,.5.03.76.03l9.94-61.54c-2.84-1.25-5.4-2.99-7.61-5.11l-98.88,106.85c.69.7,1.32,1.44,1.93,2.21l50.34-19.18Z"/>
      <path class="cls-65" d="M269.54,367.69l-.37.41.55-.21c-.05-.05-.11-.13-.17-.19Z"/>
      <path class="cls-65" d="M44.48,616.72c-.61-1.24-1.34-2.41-2.19-3.5l-6.12,6.61,8.3-3.11Z"/>
      <path class="cls-36" d="M223.23,490.63c-.11-.93-.17-1.89-.17-2.86,0-14.3,11.57-25.95,25.84-26.1l1.91-54.01c-4.85-.76-9.26-2.83-12.83-5.86l-87.41,94.44c2.75,2.79,4.86,6.19,6.15,9.97l66.52-15.59Z"/>
      <path class="cls-37" d="M856.95,521.66c0-1.09.09-2.15.22-3.2l-160.99-29.84c-2.6,8.2-9.15,14.63-17.4,17.11l5.86,93.91c9.52.24,17.79,5.57,22.17,13.39l152.53-80.5c-1.52-3.32-2.4-7-2.4-10.87Z"/>
      <path class="cls-65" d="M1438.07,603.68l-8.74-11.16c-3.74,2.07-8.03,3.26-12.61,3.26-9.17,0-17.25-4.77-21.91-11.93l-72.82,35.43c.52,2.07.85,4.22.85,6.46,0,1.09-.1,2.16-.22,3.22h103.5c-.13-1.06-.22-2.13-.22-3.22,0-9.27,4.87-17.41,12.18-22.05Z"/>
      <path class="cls-65" d="M1390.6,569.65c0-5.97,2.04-11.46,5.42-15.87l-52.88-48.71c-4.71,4.57-11.12,7.4-18.19,7.4-14.4,0-26.12-11.71-26.12-26.12,0-6.29,2.25-12.07,5.97-16.59l-72.64-66.9c-1.95,2.02-4.23,3.72-6.74,5.02v32.77l29.51,11.24,4.3,64.35,39.54,43.33v40.13c9.28.73,17.21,6.32,21.22,14.24l72.28-35.16c-1.07-2.85-1.68-5.91-1.68-9.14Z"/>
      <path class="cls-65" d="M1552.18,529.96c-4.34,3.19-9.67,5.11-15.46,5.11-2.27,0-4.47-.32-6.58-.88l-11.41,26.25c8.56,4.3,14.46,13.13,14.46,23.33,0,1.19-.11,2.34-.26,3.48l92.3,29.29c1.04-2.74,2.5-5.27,4.33-7.48l-77.39-79.11Z"/>
      <path class="cls-65" d="M1531.57,592.74c-3.66,10-13.24,17.15-24.49,17.15-7.49,0-14.23-3.18-18.99-8.24l-14.45,9.43c2.84,4.18,4.5,9.22,4.5,14.64,0,1.09-.09,2.16-.21,3.22h145.85c-.13-1.06-.21-2.13-.21-3.22,0-1.26.12-2.5.29-3.71l-92.27-29.28Z"/>
      <path class="cls-37" d="M939.62,581.92c-8.8-4.21-14.9-13.18-14.9-23.56,0-5.68,1.84-10.93,4.93-15.21l-22.2-12.19c-3.76,9.81-13.26,16.82-24.38,16.82-8.5,0-16.03-4.09-20.81-10.4l-153.24,80.87c.71,2.38,1.1,4.87,1.1,7.48,0,1.09-.09,2.16-.21,3.22h187.65l25.3-38.9,16.76-8.13Z"/>
      <path class="cls-22" d="M1119.54,566.83c0-14.4,11.72-26.12,26.12-26.12,4.06,0,7.9.95,11.32,2.61l18.43-31.7c-5.89-4.34-9.91-11.08-10.57-18.78l-116.18-5.52c-1.85,12.6-12.71,22.33-25.82,22.33-5.39,0-10.41-1.65-14.58-4.46l-14.49,20.37-5.86,38.09-11.97,1.9c-.94,3.28-2.51,6.29-4.56,8.9l28.27,28.85c3.9-2.34,8.45-3.7,13.32-3.7,10.3,0,19.2,6.01,23.45,14.7l84.64-38.81c-.96-2.71-1.51-5.61-1.51-8.66Z"/>
      <path class="cls-21" d="M1649.67,599.61c-6.04,0-11.6,2.08-16.03,5.54l-77.31-79.01c4.04-4.6,6.5-10.61,6.5-17.18,0-14.4-11.72-26.12-26.12-26.12-6.37,0-12.22,2.3-16.76,6.12l-56.49-57.74c3.85-4.55,6.19-10.42,6.19-16.84,0-14.4-11.72-26.12-26.12-26.12-6.21,0-11.92,2.19-16.41,5.83l-155.12-158.55c1.79-3.54,2.82-7.52,2.82-11.75,0-14.4-11.72-26.11-26.12-26.11s-26.12,11.71-26.12,26.11c0,5.13,1.51,9.9,4.07,13.94l-64.99,62.63c-4.76-4.97-11.44-8.09-18.84-8.09-14.41,0-26.12,11.72-26.12,26.12,0,7.06,2.83,13.47,7.4,18.17l-30.09,29-33.07-42.18c7.2-4.66,12-12.74,12-21.94,0-14.4-11.72-26.12-26.12-26.12-6.95,0-13.25,2.74-17.93,7.18l-74.1-94.49c7.36-4.63,12.27-12.79,12.27-22.1,0-14.4-11.72-26.11-26.12-26.11-7.05,0-13.46,2.82-18.16,7.38l-82.51-105.22c3.35-4.39,5.38-9.87,5.38-15.81,0-14.4-11.72-26.12-26.12-26.12s-26.12,11.72-26.12,26.12c0,5.9,1.99,11.33,5.31,15.72l-129.3,154.64c-4.5-3.67-10.24-5.88-16.49-5.88-14.4,0-26.12,11.71-26.12,26.12,0,7.91,3.56,15,9.13,19.79l-45.79,54.77c-4.22-2.94-9.34-4.67-14.87-4.67-14.4,0-26.12,11.71-26.12,26.12,0,7.19,2.92,13.71,7.65,18.44l-29.09,34.79-10.76-10.61c3.35-4.39,5.37-9.86,5.37-15.8,0-14.4-11.71-26.12-26.11-26.12-6.09,0-11.68,2.11-16.12,5.61l-67.9-66.89c2.68-4.1,4.25-8.99,4.25-14.25,0-14.4-11.72-26.12-26.12-26.12s-26.12,11.72-26.12,26.12c0,5.35,1.62,10.31,4.38,14.45l-99.63,107.64c-4.08-2.65-8.93-4.2-14.16-4.2-14.4,0-26.12,11.72-26.12,26.12,0,5.94,2.02,11.41,5.38,15.8l-87.92,94.99c-4.08-2.66-8.93-4.21-14.16-4.21-14.4,0-26.12,11.72-26.12,26.12,0,5.95,2.02,11.41,5.38,15.8l-69.15,74.72c-4.42-3.45-9.96-5.52-15.98-5.52-14.4,0-26.12,11.72-26.12,26.12s11.72,26.12,26.12,26.12c11.28,0,20.89-7.21,24.53-17.25h229.06c3.64,10.04,13.24,17.25,24.53,17.25s20.88-7.21,24.52-17.25h330.7c3.65,10.04,13.25,17.25,24.53,17.25s20.89-7.21,24.53-17.25h279.88c3.64,10.04,13.25,17.25,24.53,17.25s20.89-7.21,24.53-17.25h234.7c3.64,10.04,13.25,17.25,24.53,17.25s20.88-7.21,24.53-17.25h106.22c3.65,10.04,13.25,17.25,24.53,17.25s20.89-7.21,24.53-17.25h148.59c3.64,10.04,13.25,17.25,24.53,17.25,14.4,0,26.11-11.72,26.11-26.12s-11.71-26.12-26.11-26.12ZM1452.01,599.61c-3.06,0-6.01.56-8.75,1.54l-9.31-11.91c3.82-3.36,6.65-7.83,7.99-12.91l39.07,6.4c-.01.35-.05.7-.05,1.05,0,4.89,1.37,9.45,3.72,13.36l-14.75,9.63c-4.68-4.42-10.98-7.16-17.91-7.16ZM1324.95,460.25c-6.06,0-11.65,2.1-16.08,5.58l-73.24-67.45c2.46-3.99,3.91-8.66,3.91-13.67s-1.36-9.4-3.69-13.3l15.57-19.62,99.01,89.48.09.22.11-.04,21.93,19.81-26.72,9.48c-4.78-6.36-12.35-10.5-20.89-10.5ZM1293.13,599.88c-4.32.6-8.28,2.24-11.66,4.68l-73.77-94.07c5.65-4.79,9.25-11.92,9.25-19.89,0-10.7-6.47-19.92-15.71-23.94l11.33-55.87c.28.01.56.04.85.04,2.19,0,4.31-.3,6.35-.81v34.53l29.77,11.35,4.18,62.7,39.4,43.17v38.12ZM1232.35,366.77c-2.65-2.79-5.89-4.98-9.53-6.4l10.42-51.36,9.44,34.89,4.55,4.1-14.88,18.76ZM1443.55,440.48c.21,0,.43-.03.65-.03l5.76,49.91c-8.77,1.67-16.01,7.72-19.31,15.8l-75.44-68.18-29.91-77.07,92.95,47.04c-.53,2.06-.82,4.19-.82,6.41,0,14.4,11.72,26.12,26.12,26.12ZM1348.77,475.7l28.55-10.12,20.01,18.08-13.93,20.78-33.96-9.08c1.04-2.81,1.63-5.83,1.63-9,0-3.79-.84-7.4-2.3-10.66ZM1346.87,500.51l38.97,10.43,15.72-23.46,27.46,24.81c-.18,1.21-.3,2.45-.3,3.72,0,6.37,2.3,12.22,6.12,16.77l-10.26,11.98c-2.49-.79-5.12-1.21-7.85-1.21-6.4,0-12.26,2.31-16.81,6.15l-53.17-48.97c.05-.08.09-.15.13-.21ZM1481.85,577.13l-39.06-6.39c.01-.36.05-.72.05-1.09,0-9.57-5.2-17.93-12.9-22.49l8.99-10.49c4.41,3.41,9.92,5.45,15.91,5.45,4.64,0,8.98-1.23,12.76-3.35l21.15,26.43c-3.29,3.24-5.69,7.34-6.9,11.92ZM1513.43,558.47c-2.04-.5-4.16-.81-6.35-.81-5.11,0-9.87,1.5-13.91,4.05l-20.98-26.23c5-4.47,8.27-10.83,8.69-17.96l30.59-2.04c1.89,7.28,6.82,13.34,13.39,16.7l-11.43,26.28ZM1516.05,493.04c-3.4,4.4-5.45,9.92-5.45,15.91,0,.31.04.62.05.93l-30.06,2c-1.94-12.2-12.34-21.59-24.99-21.95l-5.8-50.24c3.52-.87,6.76-2.45,9.57-4.6l56.68,57.95ZM1423.16,398.08c-1.12,1.4-2.1,2.94-2.92,4.55l-105.51-53.42,31.16,80.34-98.19-88.74-11.96-44.16,9.55-47.02c1.12.15,2.26.25,3.43.25,8.1,0,15.35-3.71,20.15-9.51l154.29,157.71ZM1230.18,242.15c2.69,2.71,5.97,4.8,9.61,6.14l-9.4,46.32-61.57,21.33c-.38-4.04-1.68-7.8-3.69-11.1l65.04-62.69ZM1168.67,321.97l60.42-20.93-11.74,57.88c-1.29-.19-2.59-.33-3.92-.33-5.79,0-11.11,1.92-15.45,5.11l-33.46-30.82c2.15-3.2,3.59-6.91,4.15-10.91ZM1128.49,340.16c4.11,2.72,9.04,4.32,14.34,4.32,7,0,13.35-2.79,18.04-7.28l32.92,30.33c-4.03,4.61-6.49,10.61-6.49,17.18,0,12.18,8.38,22.4,19.67,25.28l-11.15,54.98c-1.62-.32-3.28-.49-4.99-.49-5.71,0-10.99,1.86-15.3,4.99l-45.33-57.81c4.75-4.72,7.68-11.27,7.68-18.48,0-14.4-11.71-26.12-26.12-26.12-4.96,0-9.58,1.41-13.53,3.82l-.71-.89,30.96-29.84ZM1093.75,374.33c-4.97,4.76-8.09,11.44-8.09,18.86,0,14.4,11.71,26.12,26.11,26.12,5.16,0,9.96-1.52,14.02-4.11l45.55,58.09c-3.4,3.81-5.69,8.61-6.39,13.93l-116.1-5.52c-.79-11.06-8.46-20.23-18.76-23.22l15.54-130.99c.4.01.78.05,1.19.05,3.15,0,6.15-.59,8.96-1.62l37.96,48.41ZM963.77,535.7l23.83-7.22-4.65,30.23-6.06.96c.02-.44.07-.87.07-1.32,0-9.7-5.32-18.15-13.19-22.66ZM954.67,532.56c-1.25-.19-2.53-.32-3.84-.32-6.64,0-12.68,2.51-17.29,6.6l-24.65-13.53c.17-1.2.29-2.41.29-3.65,0-14.4-11.72-26.12-26.12-26.12-.74,0-1.46.05-2.17.11l-16.92-84.57c5.12-1.59,9.56-4.74,12.79-8.85l122.11,70.93c-1.38,3.19-2.16,6.7-2.16,10.38,0,6.96,2.76,13.3,7.23,17.98l-14.61,20.54-34.66,10.51ZM695.18,470.18l62.92-39.69c4.79,6.07,12.19,10,20.49,10,6.59,0,12.59-2.46,17.18-6.5l70.41,67.78c-3.47,2.96-6.15,6.8-7.7,11.18l-161.18-29.87c.08-.78.12-1.56.12-2.37,0-3.75-.8-7.31-2.24-10.53ZM678.21,606.1c.39-.11.77-.2,1.17-.3l.15,2.31-1.32-2.01ZM675.03,601.23l-52.33-80.19,28.72-23.45c4.79,5.65,11.92,9.23,19.88,9.23.64,0,1.26-.04,1.89-.1l5.84,93.37c-1.37.27-2.7.65-4,1.14ZM475.75,477.91l84.38-37.21c4.61,7.47,12.83,12.48,22.23,12.48,2.44,0,4.8-.36,7.05-1l9.48,24.43-14.42,48.33c-2.45-.76-5.06-1.17-7.76-1.17-8.56,0-16.14,4.16-20.91,10.54l-80.42-38.48c1.15-2.95,1.81-6.13,1.81-9.48,0-2.96-.52-5.79-1.44-8.44ZM646.07,233.23l-.7,2.49c-.34-.13-.67-.29-1.02-.44l1.71-2.05ZM649.35,242.56c1.18.16,2.38.27,3.6.27,13.05,0,23.86-9.62,25.79-22.14l45.55,5.4c.31,8.97,5.14,16.79,12.31,21.25l-14.14,38c-2.75-1-5.71-1.56-8.8-1.56-14.41,0-26.12,11.72-26.12,26.12,0,.92.04,1.83.14,2.72l-25.73,28.7-43.72,13.74,31.12-112.5ZM797.76,98.31l16.57-46.6c1.68.34,3.43.52,5.21.52,1.1,0,2.2-.09,3.27-.23l38.79,174.01c-2.14.76-4.16,1.78-6,3.04l-30.56-28.41-26.89,12.11-16.47-64.36,20.41-29.92-4.33-20.16ZM1040.07,326.61l-15.54,130.89c-.56-.03-1.11-.09-1.69-.09-3.78,0-7.37.82-10.63,2.28l-42.13-65.38,9.88-36.67-41.12-91.04.24-.5-.6-.29-14.7-32.57,27.64,15.48,58.28,56.93h11.41c1.66,10.15,9.18,18.32,18.97,20.95ZM861.47,360.53l6.5-83.94c.78.08,1.59.12,2.39.12,5.31,0,10.26-1.61,14.39-4.34l122.58,190.19c-2.15,1.61-4.06,3.52-5.64,5.7l-121.94-70.84c1.65-3.43,2.6-7.25,2.6-11.3,0-12.61-8.99-23.16-20.89-25.59ZM875.32,502.72c.37-.15.75-.29,1.14-.42l.37,1.89-1.51-1.47ZM870.97,498.53l-71.37-68.7c3.19-4.34,5.11-9.67,5.11-15.46,0-2.53-.37-4.97-1.05-7.29l29.12-9.57c4.24,8.71,13.16,14.73,23.46,14.73.74,0,1.47-.05,2.19-.11l16.92,84.57c-1.52.47-2.98,1.09-4.37,1.82ZM778.59,388.25c-3.57,0-6.96.72-10.07,2.02l-14.34-23.03,9.07-30.36,69.1,38.75c-1.42,3.22-2.23,6.77-2.23,10.5,0,2.1.28,4.12.75,6.07l-29.36,9.64c-4.44-8.09-13.04-13.6-22.92-13.6ZM736.77,322.02l21.44,12.02-8.01,26.8-19.46-31.24c2.45-2.12,4.51-4.69,6.03-7.58ZM844.24,250.59c0,1.99.25,3.93.67,5.8l-64.98,24.68,18.64-62.32,25.35-11.4,27.37,25.44c-4.36,4.67-7.06,10.92-7.06,17.79ZM846.77,261.72c3.06,6.48,8.71,11.52,15.62,13.73l-6.55,84.57c-8.48.13-15.98,4.33-20.67,10.72l-70.27-39.42,13-43.44,68.86-26.16ZM759.86,328.5l-21.03-11.8c.6-2.17.94-4.46.94-6.81,0-2.47-.38-4.85-1.02-7.12l32.49-12.35-11.39,38.09ZM973.97,358.13l-8.02,29.79-76.82-119.21c4.36-4.5,7.09-10.56,7.32-17.26l37.72,18.52,39.81,88.15ZM793.31,216.65l-20.02,66.95-36.64,13.93c-2.14-3.97-5.29-7.31-9.1-9.71l14.15-38.02c2.71.95,5.61,1.5,8.66,1.5,14.4,0,26.12-11.72,26.12-26.12,0-10.64-6.41-19.8-15.56-23.86l17.04-44.65,15.34,59.98ZM755.55,199.59c-1.68-.34-3.42-.52-5.19-.52-12.78,0-23.43,9.23-25.67,21.38l-45.71-5.42c-.18-2.88-.82-5.64-1.86-8.2l95.72-52.57-17.29,45.33ZM665.12,346.24l24.19-26.98c2.72,7.06,8.42,12.63,15.57,15.19l-30.71,120.31c-.94-.11-1.89-.17-2.86-.17-7.45,0-14.16,3.16-18.92,8.17l-44.88-28.72c.62-2.23.97-4.55.97-6.97,0-9.71-5.34-18.17-13.21-22.68l20.86-42.76,48.99-15.39ZM589.67,527.25l12.55-42.05,13.34,34.38-17.98,14.68c-2.13-2.84-4.82-5.23-7.91-7.01ZM594.66,450.09c4.54-2.43,8.28-6.16,10.72-10.7l43.57,27.89c-2.38,3.93-3.77,8.52-3.77,13.43,0,4.41,1.11,8.56,3.04,12.2l-28.06,22.9-25.51-65.73ZM679.68,456l30.69-120.22c1.07.14,2.16.24,3.29.24,4.5,0,8.74-1.15,12.44-3.16l37.49,60.18c-6.71,4.74-11.1,12.52-11.1,21.34,0,4.06.95,7.9,2.62,11.33l-62.78,39.6c-3.14-4.27-7.53-7.55-12.65-9.3ZM1025.16,286.87c-2.56,3.79-4.11,8.29-4.38,13.15h-8.8l-56.52-55.22-6.9-26.44,31.81,11.4,44.79,57.11ZM919.1,151.61c-2.69,4.11-4.27,9.01-4.27,14.27,0,14.41,11.72,26.12,26.12,26.12,3.03,0,5.94-.55,8.66-1.5l24.23,30.91-33.44-11.99,8.14,31.24-36.99-20.72,18.95,41.96-34.68-17.03c-2.61-11.66-13.03-20.4-25.47-20.4-1.1,0-2.2.1-3.27.24l-38.8-174.01c2.97-1.06,5.7-2.62,8.06-4.62l82.76,105.54ZM802.62,45.98c1.9,1.62,4.03,2.97,6.33,4l-17.04,47.95,4.15,19.37-19.38,28.41-102.26,56.16c-.32-.46-.66-.9-1.01-1.34l129.21-154.55ZM640.63,239.73c1.04.56,2.13,1.03,3.25,1.44l-32.4,117.14-21.38,43.82c-2.12-.66-4.37-1.03-6.69-1.11l-2.58-62.78c11.75-2.54,20.59-13.01,20.59-25.51,0-6.85-2.67-13.07-7-17.73l46.21-55.26ZM561.23,334.68c4.04,2.6,8.83,4.12,13.97,4.15l2.57,62.55c-12.21,2.17-21.53,12.86-21.53,25.69,0,2.99.54,5.85,1.47,8.53l-84.37,37.21c-3.79-6.2-10.08-10.71-17.47-12.1l13.84-16.55c1.72.36,3.51.56,5.36.56,14.4,0,26.12-11.72,26.12-26.12,0-3.46-.7-6.76-1.93-9.79l61.98-74.12ZM425.07,488.75l-15.73,18.8c.03-.47.07-.94.07-1.42,0-14.4-11.72-26.12-26.12-26.12-.06,0-.13.01-.19.01l-8.6-30.05-21-3.95,15.49-70.48c.06,0,.13.01.18.01,8.88,0,16.72-4.46,21.45-11.25l61.02,42.8c-1.71,3.48-2.7,7.37-2.7,11.51,0,10.43,6.16,19.43,15.03,23.61l-15.18,18.15c-13.34,1.16-23.85,12.37-23.85,26,0,.8.04,1.6.12,2.39ZM271.41,501.41c2.45-3.97,3.89-8.63,3.89-13.64,0-6-2.06-11.52-5.47-15.93l83.98-101.36c2.82,2.06,6.05,3.58,9.56,4.38l-15.71,71.46-22.24,11.12,18.88,17.24-5.71,29.66,12.85,11.4-67.8,21,3.16-18.81-15.37-16.52ZM153.18,554.84c-2.13,0-4.21.29-6.19.77l-3.42-17.62c8.61-4.29,14.55-13.15,14.55-23.39,0-.96-.05-1.92-.16-2.86l66.51-15.59c3.5,10.3,13.25,17.74,24.72,17.74,7.35,0,13.98-3.05,18.73-7.95l12.85,13.8-3.17,18.88-100.8,31.22c-4.19-8.85-13.18-15-23.6-15ZM280.94,381.89c0-.97-.06-1.94-.17-2.88l64.75-18.6c1.07,2.29,2.45,4.39,4.1,6.26l-83.73,101.06c-3.22-2.69-7.1-4.63-11.37-5.52l1.92-54.28c13.65-.84,24.5-12.18,24.5-26.03ZM278.36,370.63l48.22-18.37,16.74.67c.1.72.21,1.44.38,2.13l-64.17,18.43c-.33-.99-.73-1.93-1.17-2.86ZM350.17,353.2l-1.05.31c-.02-.12-.03-.24-.05-.35l1.1.04ZM344.73,502.25l5.7-29.62-15.14-13.82,15.24-7.62,19.49,3.67,7.4,25.83c-11.58,2.68-20.25,13.05-20.25,25.42,0,2.61.4,5.12,1.11,7.5l-.56.17-13.01-11.54ZM361.31,520.16c4.64,7.25,12.75,12.08,21.98,12.08,2.07,0,4.07-.27,6-.72l-29.21,34.94-4.25-20.78,5.49-25.52ZM524.11,370.28l-27.77,33.22c-4.75-6.65-12.5-11.02-21.28-11.02-8.25,0-15.6,3.86-20.39,9.85l-61.33-43.01c.66-1.64,1.17-3.36,1.5-5.15l50.49,20.11v-35.33l25.53,6.71c2.76,11.46,13.08,20.01,25.38,20.01,6.43,0,12.31-2.35,16.86-6.2l11,10.83ZM476.07,322.96c-3.72,4.51-5.95,10.3-5.95,16.57v.06l-30.44-7.98v34.33l-44.45-17.7c-.52-11.69-8.74-21.37-19.71-24.13l9.79-60.6c1.63.32,3.31.49,5.04.49,7.11,0,13.55-2.86,18.27-7.49l67.45,66.44ZM372.27,256.69c2.21,2.12,4.77,3.86,7.61,5.11l-9.94,61.54c-.26,0-.5-.03-.76-.03-13.67,0-24.91,10.57-26,23.98l-17.52-.71-50.34,19.18c-.61-.77-1.24-1.51-1.93-2.21l98.88-106.85ZM269.54,367.69c.06.06.12.14.17.19l-.55.21.37-.41ZM237.97,401.81c3.58,3.03,7.98,5.1,12.83,5.86l-1.91,54.01c-14.27.15-25.84,11.8-25.84,26.1,0,.97.06,1.93.17,2.86l-66.52,15.59c-1.29-3.78-3.4-7.19-6.15-9.97l87.41-94.44ZM42.3,613.22c.85,1.09,1.57,2.26,2.19,3.5l-8.3,3.11,6.12-6.61ZM49.78,614.74c-.96-2.07-2.16-3.99-3.6-5.71l68.96-74.52c4.55,3.86,10.43,6.2,16.85,6.2,2.14,0,4.21-.29,6.2-.77l3.41,17.62c-8.6,4.27-14.55,13.15-14.55,23.39,0,1.6.17,3.16.45,4.68l-77.72,29.11ZM278.34,628.95H52.01c.13-1.06.23-2.13.23-3.22,0-1.94-.23-3.82-.63-5.64l77.5-29.02c3.95,9.4,13.26,16.01,24.07,16.01s20.73-7.09,24.45-17l100.99,30.64c-.32,1.63-.49,3.3-.49,5.01,0,1.09.09,2.16.21,3.22ZM179.01,584.6c.17-1.2.29-2.41.29-3.64,0-1.99-.25-3.92-.66-5.79l176.85-54.77-5.42,25.24,5.39,26.35-31.06,37.14c-4.79-5.82-12.05-9.53-20.15-9.53-10.7,0-19.92,6.48-23.94,15.72l-101.29-30.73ZM327.6,614.12l99.08-118.5c3.75,9.83,13.25,16.85,24.39,16.85,9.04,0,17.02-4.62,21.72-11.62l80.12,38.34c-1.47,3.27-2.31,6.89-2.31,10.7,0,.78.05,1.54.12,2.31l-221.82,64.96c-.37-1.05-.8-2.07-1.3-3.05ZM657.88,625.72c0,1.09.1,2.16.22,3.22h-327.97c.13-1.06.21-2.13.21-3.22,0-1.03-.08-2.04-.18-3.03l221.64-64.92c3.35,10.56,13.24,18.23,24.9,18.23,7.75,0,14.7-3.41,19.49-8.78l64,47.82c-1.47,3.27-2.31,6.88-2.31,10.68ZM599.49,562.62c2.12-3.77,3.34-8.11,3.34-12.73,0-3.84-.85-7.46-2.34-10.73l17.79-14.53,51.65,79.13c-2.66,1.7-4.97,3.87-6.85,6.39l-63.6-47.52ZM706.81,613.03c-4.37-7.82-12.64-13.16-22.17-13.39l-5.86-93.91c8.25-2.47,14.79-8.91,17.4-17.11l160.99,29.84c-.14,1.05-.22,2.11-.22,3.2,0,3.88.88,7.55,2.4,10.87l-152.53,80.5ZM709.91,628.95c.13-1.06.21-2.13.21-3.22,0-2.6-.4-5.1-1.1-7.48l153.24-80.87c4.78,6.31,12.31,10.4,20.81,10.4,11.12,0,20.62-7.01,24.38-16.82l22.2,12.19c-3.09,4.29-4.93,9.53-4.93,15.21,0,10.38,6.11,19.35,14.9,23.56l-16.76,8.13-25.3,38.9h-187.65ZM987.06,628.95h-82.76l22.44-34.51,20.95-10.17c1.03.12,2.07.2,3.14.2,6.3,0,12.08-2.24,16.61-5.97l27.64,28.22c-5.07,4.77-8.25,11.51-8.25,18.99,0,1.09.09,2.16.22,3.22ZM1036.4,614.3c-4.25-8.69-13.16-14.7-23.45-14.7-4.86,0-9.42,1.36-13.32,3.7l-28.27-28.85c2.06-2.61,3.62-5.62,4.56-8.9l11.97-1.9,5.86-38.09,14.49-20.37c4.17,2.81,9.19,4.46,14.58,4.46,13.11,0,23.97-9.73,25.82-22.33l116.18,5.52c.66,7.7,4.68,14.44,10.57,18.78l-18.43,31.7c-3.43-1.66-7.26-2.61-11.32-2.61-14.4,0-26.12,11.72-26.12,26.12,0,3.04.55,5.95,1.51,8.66l-84.64,38.81ZM1270.82,628.95h-231.97c.13-1.06.23-2.13.23-3.22,0-2.1-.28-4.14-.75-6.1l85.17-39.05c4.62,7.41,12.81,12.37,22.17,12.37s18.22-5.36,22.71-13.27l102.52,42.38c-.17,1.2-.29,2.41-.29,3.66,0,1.09.09,2.16.21,3.22ZM1170.63,574.5c.74-2.43,1.15-5,1.15-7.67,0-8.32-3.92-15.73-10-20.52l18.51-31.85c3.22,1.44,6.79,2.25,10.54,2.25,4.4,0,8.55-1.1,12.19-3.04l74.24,94.68c-2.12,2.38-3.81,5.13-4.96,8.17l-101.68-42.03ZM1320,613.95c-4.02-7.92-11.95-13.51-21.22-14.24v-40.13l-39.54-43.33-4.3-64.35-29.51-11.24v-32.77c2.51-1.31,4.79-3,6.74-5.02l72.64,66.9c-3.72,4.52-5.97,10.31-5.97,16.59,0,14.41,11.72,26.12,26.12,26.12,7.07,0,13.48-2.83,18.19-7.4l52.88,48.71c-3.39,4.4-5.42,9.9-5.42,15.87,0,3.22.61,6.29,1.68,9.14l-72.28,35.16ZM1426.12,628.95h-103.5c.13-1.06.22-2.13.22-3.22,0-2.24-.32-4.39-.85-6.46l72.82-35.43c4.66,7.17,12.74,11.93,21.91,11.93,4.57,0,8.87-1.19,12.61-3.26l8.74,11.16c-7.31,4.64-12.18,12.78-12.18,22.05,0,1.09.1,2.16.22,3.22ZM1623.76,628.95h-145.85c.13-1.06.21-2.13.21-3.22,0-5.42-1.66-10.47-4.5-14.64l14.45-9.43c4.77,5.06,11.51,8.24,18.99,8.24,11.25,0,20.83-7.16,24.49-17.15l92.27,29.28c-.17,1.21-.29,2.44-.29,3.71,0,1.09.09,2.16.21,3.22ZM1532.94,587.25c.15-1.15.26-2.29.26-3.48,0-10.2-5.9-19.04-14.46-23.33l11.41-26.25c2.11.56,4.31.88,6.58.88,5.79,0,11.12-1.92,15.46-5.11l77.39,79.11c-1.83,2.21-3.29,4.74-4.33,7.48l-92.3-29.29Z"/>
      <path class="cls-96" d="M995.08,606.73l-27.64-28.22c-4.52,3.73-10.31,5.97-16.61,5.97-1.07,0-2.11-.09-3.14-.2l-20.95,10.17-22.44,34.51h82.76c-.14-1.06-.22-2.13-.22-3.22,0-7.49,3.18-14.23,8.25-18.99Z"/>
      <path class="cls-13" d="M615.56,519.58l-13.34-34.38-12.55,42.05c3.09,1.78,5.77,4.17,7.91,7.01l17.98-14.68Z"/>
      <path class="cls-96" d="M1168.37,579.68c-4.49,7.92-12.98,13.27-22.71,13.27s-17.55-4.96-22.17-12.37l-85.17,39.05c.47,1.96.75,4,.75,6.1,0,1.09-.1,2.16-.23,3.22h231.97c-.13-1.06-.21-2.13-.21-3.22,0-1.25.12-2.46.29-3.66l-102.52-42.38Z"/>
      <path class="cls-96" d="M1203.02,513.67c-3.64,1.94-7.79,3.04-12.19,3.04-3.75,0-7.32-.81-10.54-2.25l-18.51,31.85c6.07,4.79,10,12.19,10,20.52,0,2.67-.41,5.24-1.15,7.67l101.68,42.03c1.15-3.04,2.84-5.8,4.96-8.17l-74.24-94.68Z"/>
      <path class="cls-88" d="M776.67,145.71l19.38-28.41-4.15-19.37,17.04-47.95c-2.3-1.03-4.44-2.38-6.33-4l-129.21,154.55c.34.44.69.88,1.01,1.34l102.26-56.16Z"/>
      <path class="cls-50" d="M828.29,50.69l38.8,174.01c1.07-.14,2.16-.24,3.27-.24,12.44,0,22.85,8.74,25.47,20.4l34.68,17.03-18.95-41.96,36.99,20.72-8.14-31.24,33.44,11.99-24.23-30.91c-2.72.95-5.62,1.5-8.66,1.5-14.4,0-26.12-11.71-26.12-26.12,0-5.26,1.59-10.16,4.27-14.27l-82.76-105.54c-2.36,1.99-5.09,3.56-8.06,4.62Z"/>
      <path class="cls-13" d="M501.18,418.6c0,14.4-11.72,26.12-26.12,26.12-1.84,0-3.63-.19-5.36-.56l-13.84,16.55c7.39,1.38,13.68,5.89,17.47,12.1l84.37-37.21c-.93-2.68-1.47-5.54-1.47-8.53,0-12.83,9.32-23.52,21.53-25.69l-2.57-62.55c-5.14-.02-9.93-1.54-13.97-4.15l-61.98,74.12c1.23,3.03,1.93,6.33,1.93,9.79Z"/>
      <path class="cls-13" d="M580.83,338.23l2.58,62.78c2.31.09,4.56.45,6.69,1.11l21.38-43.82,32.4-117.14c-1.11-.41-2.21-.88-3.25-1.44l-46.21,55.26c4.33,4.66,7,10.88,7,17.73,0,12.5-8.84,22.97-20.59,25.51Z"/>
      <path class="cls-17" d="M648.22,492.91c-1.93-3.64-3.04-7.79-3.04-12.2,0-4.92,1.39-9.5,3.77-13.43l-43.57-27.89c-2.44,4.54-6.18,8.27-10.72,10.7l25.51,65.73,28.06-22.9Z"/>
      <path class="cls-17" d="M755.11,425.7c-1.67-3.44-2.62-7.27-2.62-11.33,0-8.82,4.39-16.61,11.1-21.34l-37.49-60.18c-3.7,2.01-7.94,3.16-12.44,3.16-1.12,0-2.22-.1-3.29-.24l-30.69,120.22c5.12,1.75,9.51,5.02,12.65,9.3l62.78-39.6Z"/>
      <path class="cls-74" d="M390.36,264c-1.72,0-3.41-.17-5.04-.49l-9.79,60.6c10.97,2.75,19.19,12.44,19.71,24.13l44.45,17.7v-34.33l30.44,7.98v-.06c0-6.28,2.23-12.06,5.95-16.57l-67.45-66.44c-4.71,4.63-11.15,7.49-18.27,7.49Z"/>
      <path class="cls-24" d="M955.46,244.8l56.52,55.22h8.8c.27-4.85,1.82-9.35,4.38-13.15l-44.79-57.11-31.81-11.4,6.9,26.44Z"/>
      <path class="cls-18" d="M389.3,531.52c-1.93.45-3.93.72-6,.72-9.23,0-17.34-4.83-21.98-12.08l-5.49,25.52,4.25,20.78,29.21-34.94Z"/>
      <path class="cls-109" d="M358.29,513.62c-.72-2.38-1.11-4.89-1.11-7.5,0-12.37,8.67-22.74,20.25-25.42l-7.4-25.83-19.49-3.67-15.24,7.62,15.14,13.82-5.7,29.62,13.01,11.54.56-.17Z"/>
      <path class="cls-107" d="M496.24,365.65c-12.3,0-22.62-8.55-25.38-20.01l-25.53-6.71v35.33l-50.49-20.11c-.33,1.79-.84,3.51-1.5,5.15l61.33,43.01c4.79-5.99,12.14-9.85,20.39-9.85,8.77,0,16.53,4.37,21.28,11.02l27.77-33.22-11-10.83c-4.55,3.86-10.43,6.2-16.86,6.2Z"/>
      <path class="cls-36" d="M277.58,538.62l3.17-18.88-12.85-13.8c-4.75,4.9-11.38,7.95-18.73,7.95-11.46,0-21.21-7.45-24.72-17.74l-66.51,15.59c.11.94.16,1.9.16,2.86,0,10.24-5.94,19.1-14.55,23.39l3.42,17.62c1.98-.48,4.06-.77,6.19-.77,10.42,0,19.41,6.15,23.6,15l100.8-31.22Z"/>
      <path class="cls-36" d="M351.42,515.74l-12.85-11.4,5.71-29.66-18.88-17.24,22.24-11.12,15.71-71.46c-3.5-.8-6.74-2.32-9.56-4.38l-83.98,101.36c3.42,4.41,5.47,9.93,5.47,15.93,0,5-1.44,9.66-3.89,13.64l15.37,16.52-3.16,18.81,67.8-21Z"/>
      <path class="cls-18" d="M448.8,460.36l15.18-18.15c-8.87-4.18-15.03-13.18-15.03-23.61,0-4.14.99-8.02,2.7-11.51l-61.02-42.8c-4.72,6.79-12.57,11.25-21.45,11.25-.05,0-.12-.01-.18-.01l-15.49,70.48,21,3.95,8.6,30.05c.06,0,.13-.01.19-.01,14.4,0,26.12,11.72,26.12,26.12,0,.48-.04.95-.07,1.42l15.73-18.8c-.08-.79-.12-1.59-.12-2.39,0-13.63,10.51-24.84,23.85-26Z"/>
      <path class="cls-65" d="M350.17,353.2l-1.1-.04c.02.12.03.24.05.35l1.05-.31Z"/>
      <path class="cls-36" d="M343.32,352.93l-16.74-.67-48.22,18.37c.44.93.84,1.87,1.17,2.86l64.17-18.43c-.16-.7-.28-1.41-.38-2.13Z"/>
      <path class="cls-36" d="M256.44,407.93l-1.92,54.28c4.26.89,8.14,2.83,11.37,5.52l83.73-101.06c-1.65-1.86-3.03-3.96-4.1-6.26l-64.75,18.6c.11.94.17,1.91.17,2.88,0,13.85-10.85,25.2-24.5,26.03Z"/>
    </g>
    <g>
      <g>
        <circle class="cls-9" cx="390.36" cy="237.89" r="20.47"/>
        <circle class="cls-58" cx="395.3" cy="235.07" r="11.29"/>
      </g>
      <g>
        <circle class="cls-66" cx="496.24" cy="339.54" r="20.47"/>
        <circle class="cls-110" cx="501.18" cy="336.71" r="11.29"/>
      </g>
      <g>
        <circle class="cls-29" cx="475.06" cy="418.6" r="20.47"/>
        <circle class="cls-15" cx="480" cy="415.77" r="11.29"/>
      </g>
      <g>
        <circle class="cls-63" cx="451.06" cy="486.36" r="20.47"/>
        <circle class="cls-82" cx="456" cy="483.54" r="11.29"/>
      </g>
      <g>
        <circle class="cls-70" cx="383.3" cy="506.13" r="20.47"/>
        <circle class="cls-102" cx="388.24" cy="503.3" r="11.29"/>
      </g>
      <g>
        <circle class="cls-25" cx="254.83" cy="381.89" r="20.47"/>
        <circle class="cls-3" cx="259.77" cy="379.07" r="11.29"/>
      </g>
      <g>
        <circle class="cls-42" cx="249.18" cy="487.77" r="20.47"/>
        <circle class="cls-57" cx="254.12" cy="484.95" r="11.29"/>
      </g>
      <g>
        <circle class="cls-23" cx="132" cy="514.6" r="20.47"/>
        <circle class="cls-46" cx="136.94" cy="511.77" r="11.29"/>
      </g>
      <g>
        <circle class="cls-5" cx="153.18" cy="580.95" r="20.47"/>
        <circle class="cls-87" cx="158.12" cy="578.13" r="11.29"/>
      </g>
      <g>
        <circle class="cls-7" cx="26.12" cy="625.72" r="20.47"/>
        <circle class="cls-56" cx="31.06" cy="622.9" r="11.29"/>
      </g>
      <g>
        <circle class="cls-14" cx="304.24" cy="625.72" r="20.47"/>
        <circle class="cls-47" cx="309.18" cy="622.9" r="11.29"/>
      </g>
      <g>
        <circle class="cls-43" cx="684.01" cy="625.72" r="20.47"/>
        <circle class="cls-84" cx="688.95" cy="622.9" r="11.29"/>
      </g>
      <g>
        <circle class="cls-44" cx="1012.95" cy="625.72" r="20.47"/>
        <circle class="cls-85" cx="1017.89" cy="622.9" r="11.29"/>
      </g>
      <g>
        <circle class="cls-71" cx="1296.72" cy="625.72" r="20.47"/>
        <circle class="cls-100" cx="1301.66" cy="622.9" r="11.29"/>
      </g>
      <g>
        <circle class="cls-95" cx="1452.01" cy="625.72" r="20.47"/>
        <circle class="cls-90" cx="1456.95" cy="622.9" r="11.29"/>
      </g>
      <g>
        <circle class="cls-30" cx="1649.66" cy="625.72" r="20.47"/>
        <circle class="cls-53" cx="1654.6" cy="622.9" r="11.29"/>
      </g>
      <g>
        <circle class="cls-8" cx="1536.72" cy="508.95" r="20.47"/>
        <circle class="cls-35" cx="1541.66" cy="506.13" r="11.29"/>
      </g>
      <g>
        <circle class="cls-51" cx="1454.84" cy="516.01" r="20.47"/>
        <circle class="cls-79" cx="1459.78" cy="513.19" r="11.29"/>
      </g>
      <g>
        <circle class="cls-111" cx="1416.72" cy="569.66" r="20.47"/>
        <circle class="cls-2" cx="1421.66" cy="566.83" r="11.29"/>
      </g>
      <g>
        <circle class="cls-64" cx="1507.07" cy="583.77" r="20.47"/>
        <circle class="cls-40" cx="1512.01" cy="580.95" r="11.29"/>
      </g>
      <g>
        <circle class="cls-38" cx="1443.54" cy="414.36" r="20.47"/>
        <circle class="cls-20" cx="1448.48" cy="411.54" r="11.29"/>
      </g>
      <g>
        <circle class="cls-45" cx="1324.95" cy="486.36" r="20.47"/>
        <circle class="cls-91" cx="1329.89" cy="483.54" r="11.29"/>
      </g>
      <g>
        <circle class="cls-61" cx="1248.72" cy="223.77" r="20.47"/>
        <circle class="cls-97" cx="1253.66" cy="220.95" r="11.29"/>
      </g>
      <g>
        <circle class="cls-83" cx="1142.83" cy="318.36" r="20.47"/>
        <circle class="cls-80" cx="1147.78" cy="315.54" r="11.29"/>
      </g>
      <g>
        <circle class="cls-81" cx="1213.42" cy="384.71" r="20.47"/>
        <circle class="cls-52" cx="1218.36" cy="381.89" r="11.29"/>
      </g>
      <g>
        <circle class="cls-89" cx="1190.83" cy="490.6" r="20.47"/>
        <circle class="cls-60" cx="1195.78" cy="487.77" r="11.29"/>
      </g>
      <g>
        <circle class="cls-75" cx="1111.78" cy="393.18" r="20.47"/>
        <circle class="cls-48" cx="1116.72" cy="390.36" r="11.29"/>
      </g>
      <g>
        <circle class="cls-49" cx="1046.83" cy="301.42" r="20.47"/>
        <circle class="cls-101" cx="1051.77" cy="298.6" r="11.29"/>
      </g>
      <g>
        <circle class="cls-12" cx="940.95" cy="165.89" r="20.47"/>
        <circle class="cls-32" cx="945.89" cy="163.06" r="11.29"/>
      </g>
      <g>
        <circle class="cls-55" cx="819.54" cy="26.12" r="20.47"/>
        <circle class="cls-54" cx="824.48" cy="23.3" r="11.29"/>
      </g>
      <g>
        <circle class="cls-86" cx="870.36" cy="250.59" r="20.47"/>
        <circle class="cls-10" cx="875.3" cy="247.77" r="11.29"/>
      </g>
      <g>
        <circle class="cls-33" cx="750.36" cy="225.18" r="20.47"/>
        <circle class="cls-99" cx="755.3" cy="222.36" r="11.29"/>
      </g>
      <g>
        <circle class="cls-78" cx="652.95" cy="216.71" r="20.47"/>
        <circle class="cls-41" cx="657.89" cy="213.89" r="11.29"/>
      </g>
      <g>
        <circle class="cls-11" cx="575.3" cy="312.71" r="20.47"/>
        <circle class="cls-93" cx="580.24" cy="309.89" r="11.29"/>
      </g>
      <g>
        <circle class="cls-68" cx="582.36" cy="427.07" r="20.47"/>
        <circle class="cls-104" cx="587.3" cy="424.24" r="11.29"/>
      </g>
      <g>
        <circle class="cls-31" cx="713.65" cy="309.89" r="20.47"/>
        <circle class="cls-94" cx="718.59" cy="307.07" r="11.29"/>
      </g>
      <g>
        <circle class="cls-28" cx="778.6" cy="414.36" r="20.47"/>
        <circle class="cls-108" cx="783.54" cy="411.54" r="11.29"/>
      </g>
      <g>
        <circle class="cls-115" cx="671.3" cy="480.71" r="20.47"/>
        <circle class="cls-16" cx="676.24" cy="477.89" r="11.29"/>
      </g>
      <g>
        <circle class="cls-67" cx="883.07" cy="521.66" r="20.47"/>
        <circle class="cls-105" cx="888.01" cy="518.83" r="11.29"/>
      </g>
      <g>
        <circle class="cls-113" cx="950.83" cy="558.36" r="20.47"/>
        <circle class="cls-112" cx="955.77" cy="555.54" r="11.29"/>
      </g>
      <g>
        <circle class="cls-26" cx="1022.83" cy="483.54" r="20.47"/>
        <circle class="cls-72" cx="1027.77" cy="480.71" r="11.29"/>
      </g>
      <g>
        <circle class="cls-73" cx="1145.66" cy="566.83" r="20.47"/>
        <circle class="cls-92" cx="1150.6" cy="564.01" r="11.29"/>
      </g>
      <g>
        <circle class="cls-77" cx="576.71" cy="549.89" r="20.47"/>
        <circle class="cls-106" cx="581.65" cy="547.07" r="11.29"/>
      </g>
      <g>
        <circle class="cls-103" cx="856.24" cy="386.13" r="20.47"/>
        <circle class="cls-6" cx="861.18" cy="383.3" r="11.29"/>
      </g>
      <circle class="cls-39" cx="369.18" cy="349.42" r="20.47"/>
      <circle class="cls-76" cx="374.12" cy="346.6" r="11.29"/>
    </g>
  </g>
  <g>
    <path class="cls-62" d="M16.89,785.64c8.28-15.12,19.67-26.99,34.19-35.61,14.52-8.62,30.53-12.86,48.03-12.86s32.15,4.1,46.4,12.29c14.25,8.2,25.78,19.64,34.6,34.48l-22.11,16.11c-14.79-23.18-34.32-34.77-58.88-34.77-18.86,0-34.46,6.64-46.54,19.93-12.21,13.28-18.32,30.24-18.32,50.73s6.24,37.45,18.59,50.73c12.35,13.28,27.95,19.92,46.94,19.92,24.42,0,45.18-11.87,59.7-33.92l21.3,15.4c-8.68,14.7-20.08,26.14-34.33,34.34-14.25,8.2-29.71,12.3-46.67,12.3-26.46,0-50.88-10.88-67.7-28.4-16.96-17.38-27.68-42.82-27.68-70.38,0-18.37,4.21-35.19,12.48-50.31Z"/>
    <path class="cls-62" d="M495.08,875.8c9.23,19.78,26.73,32.22,50.74,32.22,10.85,0,19.94-2.55,27.13-7.49s10.72-11.59,10.72-19.93c0-7.49-3.26-13.57-9.63-18.09-6.38-4.38-17.09-9.18-32.15-14.13-8-2.68-14.79-5.23-20.08-7.35-5.43-2.12-10.99-4.95-16.82-8.34-5.83-3.25-10.45-6.78-13.84-10.6-6.65-7.35-11.67-18.37-11.53-31.51.41-35.05,31.75-53.42,62.68-53.42,15.87,0,29.44,3.67,40.7,11.16,11.26,7.49,19.67,16.96,25.37,28.41l-22.11,16.11c-4.34-8.34-10.31-15.12-17.77-20.63-7.6-5.37-16.28-8.06-26.18-8.06-9.36,0-17.37,2.4-24.01,7.07-6.65,4.66-10.04,11.16-10.04,19.22,0,16.25,13.84,21.06,37.72,29.53,1.49.57,2.03.85,3.39,1.13,17.5,6.22,29.71,11.31,36.5,15.12,13.16,7.49,21.44,17.24,24.56,29.11,1.22,4.52,1.9,9.47,1.9,14.98,0,17.52-8.55,32.36-21.16,40.98-12.62,8.62-28.49,13.43-44.77,13.43-17.37,0-32.43-4.1-45.04-12.15-12.75-8.06-21.98-18.51-27.54-31.37l21.3-15.4Z"/>
    <path class="cls-62" d="M694.49,785.64c8.28-15.12,19.67-26.99,34.19-35.61,14.52-8.62,30.53-12.86,48.03-12.86s32.15,4.1,46.4,12.29c14.24,8.2,25.78,19.64,34.6,34.48l-22.11,16.11c-14.79-23.18-34.33-34.77-58.88-34.77-18.86,0-34.46,6.64-46.53,19.93-12.21,13.28-18.32,30.24-18.32,50.73s6.24,37.45,18.59,50.73c12.35,13.28,27.95,19.92,46.94,19.92,24.42,0,45.18-11.87,59.7-33.92l21.3,15.4c-8.68,14.7-20.08,26.14-34.32,34.34-14.25,8.2-29.71,12.3-46.67,12.3-26.46,0-50.88-10.88-67.7-28.4-16.96-17.38-27.68-42.82-27.68-70.38,0-18.37,4.21-35.19,12.48-50.31Z"/>
    <path class="cls-69" d="M1195.34,739.99v191.91h-28.49v-191.91h28.49Z"/>
    <path class="cls-62" d="M1288.94,740.13h74.08c18.04,0,34.19,4.1,48.71,12.44,14.38,8.34,25.64,19.78,33.78,34.34,8.14,14.7,12.21,31.09,12.21,49.18.95,54.27-40.97,96.8-94.7,95.81h-74.08v-191.76ZM1317.43,905.05h45.18c38.4.57,65.94-30.67,65.26-68.96,0-19.64-6.1-36.18-18.18-49.46s-27.81-19.92-47.08-19.92h-45.18v138.35Z"/>
    <path class="cls-62" d="M1539.36,931.9v-191.91h129.16v26.99h-100.67v52.85h86.42v26.99h-86.42v58.08h103.52v26.99h-132.01Z"/>
    <polygon class="cls-62" points="342.07 739.99 311.13 739.99 235.02 931.9 265.41 931.9 326.6 773.2 338.6 802.89 364.59 867.18 312.61 867.18 304.07 891.91 373.14 891.91 387.79 931.9 418.18 931.9 342.07 739.99"/>
    <polygon class="cls-69" points="1014.07 739.99 983.14 739.99 907.03 931.9 937.42 931.9 998.61 773.2 1010.61 802.89 1036.6 867.18 984.62 867.18 976.07 891.91 1045.14 891.91 1059.8 931.9 1090.19 931.9 1014.07 739.99"/>
  </g>
</svg>